# xmcd
#
# Track frame offsets:
# 150
# 13173
# 26298
# 40781
# 55256
# 70066
# 84161
# 99588
# 115552
# 128456
# 141232
# 157417
# 171714
# 184953
# 202894
# 218153
# 230796
# 245044
# 261280
# 276421
#
# Disc length: 3912 seconds
#
#
# Revision: 0
# Processed by: cddbd v1.5.1PL2 Copyright (c) Steve Scherf et al.
# Submitted via: FreeRIP 2.944 
#
DISCID=260f4614
DTITLE=Rio Negro and Solimões - As 20 Mais  2006
DYEAR=2006
DGENRE=Country
TTITLE0=Balançou Sacudiu
TTITLE1=Clube do Batidão
TTITLE2=Ajeite 0 Trem Vem Ai
TTITLE3=O Grito da Galera
TTITLE4=Trem Bão
TTITLE5=Deixe a Poeira Baixar
TTITLE6=To Mal
TTITLE7=O Carro Dela Quebrou
TTITLE8=To Doidão
TTITLE9=Eu De Cá Voce De Lá
TTITLE10=Desconcentrado
TTITLE11=Solidão e Saudade
TTITLE12=Garagem da Vizinha
TTITLE13=Pororoca
TTITLE14=Só Alegria
TTITLE15=Rodopiou
TTITLE16=Tendel
TTITLE17=To Porai
TTITLE18=Movido Pela Emoção
TTITLE19=Vai Começar de Novo
EXTD=Topógrafo Café
EXTT0=
EXTT1=
EXTT2=
EXTT3=
EXTT4=
EXTT5=
EXTT6=
EXTT7=
EXTT8=
EXTT9=
EXTT10=
EXTT11=
EXTT12=
EXTT13=
EXTT14=
EXTT15=
EXTT16=
EXTT17=
EXTT18=
EXTT19=
PLAYORDER=
